<svg width="189" height="69" viewBox="0 0 189 69" fill="none" xmlns="http://www.w3.org/2000/svg">
<path fill-rule="evenodd" clip-rule="evenodd" d="M153.385 4.22834C164.869 3.04632 178.833 -4.63653 186.305 4.18226C193.792 13.0182 183.577 25.5052 180.985 36.8017C178.403 48.0548 182.401 64.3815 171.58 68.349C160.699 72.3381 153.385 56.9543 143.799 50.4355C137.161 45.9219 128.276 44.3833 125.336 36.9043C121.892 28.1433 121.849 17.3241 127.977 10.1855C133.944 3.23347 144.281 5.16527 153.385 4.22834Z" fill="#FC7E00"/>
<path d="M2.90767 45V11.5455H16.3026C18.7637 11.5455 20.8165 11.9103 22.4609 12.6399C24.1054 13.3696 25.3414 14.3823 26.169 15.6783C26.9967 16.9633 27.4105 18.4444 27.4105 20.1214C27.4105 21.4283 27.1491 22.5772 26.6264 23.5682C26.1037 24.5483 25.3849 25.3542 24.4702 25.9858C23.5663 26.6065 22.5317 27.0476 21.3665 27.3089V27.6357C22.6406 27.6901 23.8331 28.0495 24.9439 28.7138C26.0656 29.3781 26.9749 30.3092 27.6719 31.5071C28.3688 32.6941 28.7173 34.1098 28.7173 35.7543C28.7173 37.5294 28.2763 39.1139 27.3942 40.5078C26.523 41.8909 25.2325 42.9853 23.5227 43.7912C21.813 44.5971 19.7057 45 17.201 45H2.90767ZM9.98082 39.2173H15.7472C17.7183 39.2173 19.1558 38.8416 20.0597 38.0902C20.9635 37.3279 21.4155 36.3151 21.4155 35.0518C21.4155 34.1262 21.1922 33.3094 20.7457 32.6016C20.2992 31.8937 19.6622 31.3383 18.8345 30.9354C18.0178 30.5324 17.0431 30.331 15.9105 30.331H9.98082V39.2173ZM9.98082 25.5447H15.2244C16.1937 25.5447 17.054 25.3759 17.8054 25.0384C18.5677 24.6899 19.1667 24.1998 19.6023 23.5682C20.0488 22.9366 20.272 22.1797 20.272 21.2976C20.272 20.0888 19.8419 19.1141 18.9815 18.3736C18.1321 17.633 16.9233 17.2628 15.3551 17.2628H9.98082V25.5447ZM49.2793 34.3168V19.9091H56.2381V45H49.557V40.4425H49.2956C48.7293 41.9126 47.7873 43.0942 46.4696 43.9872C45.1628 44.8802 43.5674 45.3267 41.6834 45.3267C40.0063 45.3267 38.5307 44.9455 37.2566 44.1832C35.9824 43.4209 34.986 42.3374 34.2672 40.9325C33.5594 39.5277 33.2 37.8452 33.1891 35.8849V19.9091H40.1479V34.6435C40.1588 36.1245 40.5563 37.2952 41.3404 38.1555C42.1245 39.0159 43.1754 39.446 44.4931 39.446C45.3316 39.446 46.1157 39.2554 46.8453 38.8743C47.575 38.4822 48.1631 37.9051 48.6096 37.1428C49.0669 36.3804 49.2902 35.4384 49.2793 34.3168ZM82.6808 27.0639L76.31 27.456C76.2011 26.9115 75.967 26.4214 75.6076 25.9858C75.2482 25.5393 74.7745 25.1854 74.1864 24.924C73.6093 24.6518 72.9177 24.5156 72.1119 24.5156C71.0337 24.5156 70.1244 24.7443 69.3839 25.2017C68.6433 25.6482 68.2731 26.2472 68.2731 26.9986C68.2731 27.5975 68.5127 28.1039 68.9918 28.5178C69.471 28.9316 70.2932 29.2637 71.4585 29.5142L75.9996 30.429C78.439 30.9299 80.2577 31.7358 81.4556 32.8466C82.6535 33.9574 83.2525 35.4167 83.2525 37.2244C83.2525 38.8688 82.7679 40.3118 81.7987 41.5533C80.8403 42.7947 79.5226 43.764 77.8455 44.4609C76.1793 45.147 74.2572 45.4901 72.0792 45.4901C68.7577 45.4901 66.1114 44.7985 64.1403 43.4155C62.18 42.0215 61.0311 40.1267 60.6935 37.7308L67.538 37.3714C67.7449 38.3842 68.2459 39.1574 69.0408 39.6911C69.8358 40.2138 70.854 40.4751 72.0955 40.4751C73.3152 40.4751 74.2953 40.241 75.0359 39.7727C75.7873 39.2936 76.1684 38.6783 76.1793 37.9268C76.1684 37.2952 75.9016 36.7779 75.3789 36.375C74.8562 35.9612 74.0503 35.6454 72.9613 35.4276L68.6161 34.5618C66.1658 34.0717 64.3417 33.2223 63.1438 32.0135C61.9568 30.8047 61.3633 29.2637 61.3633 27.3906C61.3633 25.7789 61.7989 24.3904 62.6701 23.2251C63.5522 22.0599 64.7882 21.1615 66.3782 20.5298C67.979 19.8982 69.8522 19.5824 71.9975 19.5824C75.1665 19.5824 77.6604 20.2521 79.479 21.5916C81.3086 22.9311 82.3758 24.7552 82.6808 27.0639ZM104.215 54.4091V40.9815H104.002C103.676 41.6785 103.213 42.37 102.614 43.0561C102.026 43.7313 101.258 44.2921 100.311 44.7386C99.374 45.1851 98.2305 45.4084 96.8802 45.4084C94.9744 45.4084 93.2483 44.9183 91.7019 43.9382C90.1664 42.9472 88.9467 41.4934 88.0428 39.5767C87.1498 37.6491 86.7033 35.286 86.7033 32.4872C86.7033 29.6122 87.1661 27.2218 88.0918 25.3161C89.0175 23.3994 90.248 21.9673 91.7836 21.0199C93.33 20.0616 95.0234 19.5824 96.8638 19.5824C98.2686 19.5824 99.4393 19.822 100.376 20.3011C101.323 20.7694 102.086 21.3575 102.663 22.0653C103.251 22.7623 103.697 23.4484 104.002 24.1236H104.296V19.9091H111.157V54.4091H104.215ZM99.0854 39.8707C100.207 39.8707 101.155 39.5658 101.928 38.956C102.712 38.3352 103.311 37.4695 103.725 36.3587C104.149 35.2479 104.362 33.9465 104.362 32.4545C104.362 30.9626 104.155 29.6667 103.741 28.5668C103.327 27.4669 102.728 26.6174 101.944 26.0185C101.16 25.4195 100.207 25.12 99.0854 25.12C97.9419 25.12 96.9782 25.4304 96.1941 26.0511C95.41 26.6719 94.8165 27.5322 94.4135 28.6321C94.0106 29.732 93.8091 31.0062 93.8091 32.4545C93.8091 33.9138 94.0106 35.2043 94.4135 36.326C94.8274 37.4368 95.4209 38.308 96.1941 38.9396C96.9782 39.5604 97.9419 39.8707 99.0854 39.8707ZM132.834 34.3168V19.9091H139.793V45H133.112V40.4425H132.85C132.284 41.9126 131.342 43.0942 130.024 43.9872C128.718 44.8802 127.122 45.3267 125.238 45.3267C123.561 45.3267 122.085 44.9455 120.811 44.1832C119.537 43.4209 118.541 42.3374 117.822 40.9325C117.114 39.5277 116.755 37.8452 116.744 35.8849V19.9091H123.703V34.6435C123.713 36.1245 124.111 37.2952 124.895 38.1555C125.679 39.0159 126.73 39.446 128.048 39.446C128.886 39.446 129.67 39.2554 130.4 38.8743C131.13 38.4822 131.718 37.9051 132.164 37.1428C132.622 36.3804 132.845 35.4384 132.834 34.3168ZM156.794 45.4901C154.213 45.4901 151.991 44.9673 150.129 43.9219C148.278 42.8655 146.851 41.3736 145.849 39.446C144.847 37.5076 144.346 35.2152 144.346 32.5689C144.346 29.9879 144.847 27.7228 145.849 25.7734C146.851 23.8241 148.261 22.3049 150.08 21.2159C151.909 20.1269 154.055 19.5824 156.516 19.5824C158.171 19.5824 159.712 19.8492 161.139 20.3828C162.576 20.9055 163.829 21.6951 164.896 22.7514C165.974 23.8078 166.813 25.1364 167.412 26.7372C168.011 28.3272 168.31 30.1894 168.31 32.3239V34.2351H147.123V29.9226H161.76C161.76 28.9207 161.542 28.0331 161.106 27.2599C160.671 26.4867 160.066 25.8823 159.293 25.4467C158.531 25.0002 157.643 24.777 156.63 24.777C155.574 24.777 154.637 25.022 153.821 25.5121C153.015 25.9912 152.383 26.6392 151.926 27.456C151.468 28.2618 151.234 29.1603 151.223 30.1513V34.2514C151.223 35.4929 151.452 36.5656 151.909 37.4695C152.378 38.3733 153.037 39.0703 153.886 39.5604C154.735 40.0504 155.743 40.2955 156.908 40.2955C157.681 40.2955 158.389 40.1866 159.032 39.9688C159.674 39.7509 160.224 39.4242 160.681 38.9886C161.139 38.553 161.487 38.0194 161.727 37.3878L168.163 37.8125C167.836 39.3589 167.167 40.7093 166.154 41.8636C165.152 43.0071 163.856 43.9001 162.266 44.5426C160.687 45.1742 158.863 45.4901 156.794 45.4901ZM172.851 45V19.9091H179.81V45H172.851ZM176.347 16.6747C175.312 16.6747 174.425 16.3317 173.684 15.6456C172.955 14.9486 172.59 14.1155 172.59 13.1463C172.59 12.188 172.955 11.3658 173.684 10.6797C174.425 9.98272 175.312 9.63423 176.347 9.63423C177.382 9.63423 178.264 9.98272 178.993 10.6797C179.734 11.3658 180.104 12.188 180.104 13.1463C180.104 14.1155 179.734 14.9486 178.993 15.6456C178.264 16.3317 177.382 16.6747 176.347 16.6747Z" fill="white"/>
</svg>
