<svg width="66" height="69" viewBox="0 0 66 69" fill="none" xmlns="http://www.w3.org/2000/svg">
<path fill-rule="evenodd" clip-rule="evenodd" d="M30.3846 4.22834C41.8693 3.04632 55.8325 -4.63653 63.3049 4.18226C70.7919 13.0182 60.5773 25.5052 57.985 36.8017C55.4025 48.0548 59.4011 64.3815 48.5796 68.349C37.6994 72.3381 30.3853 56.9543 20.7986 50.4355C14.1608 45.9219 5.2759 44.3833 2.33596 36.9043C-1.10788 28.1433 -1.15105 17.3241 4.97664 10.1855C10.9442 3.23347 21.2813 5.16527 30.3846 4.22834Z" fill="#FC7E00"/>
<path d="M23.2756 41V14.8182H33.7585C35.6847 14.8182 37.2912 15.1037 38.5781 15.6747C39.8651 16.2457 40.8324 17.0384 41.4801 18.0526C42.1278 19.0582 42.4517 20.2173 42.4517 21.5298C42.4517 22.5526 42.2472 23.4517 41.8381 24.2273C41.429 24.9943 40.8665 25.625 40.1506 26.1193C39.4432 26.6051 38.6335 26.9503 37.7216 27.1548V27.4105C38.7188 27.4531 39.652 27.7344 40.5213 28.2543C41.3991 28.7741 42.1108 29.5028 42.6562 30.4403C43.2017 31.3693 43.4744 32.4773 43.4744 33.7642C43.4744 35.1534 43.1293 36.3935 42.4389 37.4844C41.7571 38.5668 40.7472 39.4233 39.4091 40.054C38.071 40.6847 36.4219 41 34.4616 41H23.2756ZM28.8111 36.4744H33.3239C34.8665 36.4744 35.9915 36.1804 36.6989 35.5923C37.4063 34.9957 37.7599 34.2031 37.7599 33.2145C37.7599 32.4901 37.5852 31.8509 37.2358 31.2969C36.8864 30.7429 36.3878 30.3082 35.7401 29.9929C35.1009 29.6776 34.3381 29.5199 33.4517 29.5199H28.8111V36.4744ZM28.8111 25.7741H32.9148C33.6733 25.7741 34.3466 25.642 34.9347 25.3778C35.5313 25.1051 36 24.7216 36.3409 24.2273C36.6903 23.733 36.8651 23.1406 36.8651 22.4503C36.8651 21.5043 36.5284 20.7415 35.8551 20.1619C35.1903 19.5824 34.2443 19.2926 33.017 19.2926H28.8111V25.7741Z" fill="white"/>
</svg>
